<svg xmlns="http://www.w3.org/2000/svg" viewBox="0 0 800 600" role="img" aria-label="After illustration"><defs><linearGradient id="bp" x1="0" y1="0" x2="0" y2="1"><stop offset="0" stop-color="#0f172a"/><stop offset="1" stop-color="#1e293b"/></linearGradient><pattern id="g" width="56" height="28" patternUnits="userSpaceOnUse"><path d="M0 .5h56M0 14.5h56M0 27.5h56M.5 0v14M28.5 0v14M14.5 14v14M42.5 14v14" fill="none" stroke="#93c5fd" stroke-opacity="0.10" stroke-width="1"/></pattern></defs><rect width="800" height="600" fill="url(#bp)"/><rect width="800" height="600" fill="url(#g)"/><rect x="0" y="0" width="800" height="5" fill="#2563eb"/><rect x="16" y="16" width="768" height="568" rx="8" fill="none" stroke="#2563eb" stroke-opacity="0.40" stroke-width="2"/><g transform="translate(400 272) scale(13) translate(-12 -12)" fill="none" stroke="#93c5fd" stroke-width="0.23" stroke-linecap="round" stroke-linejoin="round"><path d="m3 10 9-7 9 7"/><path d="M5 9v11a1 1 0 0 0 1 1h12a1 1 0 0 0 1-1V9"/><path d="M9 21v-6h6v6"/></g><text x="44" y="70" fill="#cbd5e1" font-family="system-ui,Segoe UI,Arial,sans-serif" font-size="26" font-weight="700" letter-spacing="4">AFTER</text><text x="44" y="560" fill="#64748b" font-family="system-ui,Segoe UI,Arial,sans-serif" font-size="19" font-weight="600" letter-spacing="3">ILLUSTRATION</text></svg>